<svg width="47" height="48" viewBox="0 0 47 48" fill="none" xmlns="http://www.w3.org/2000/svg">
    <!-- header-->
    <g id="ellipse1">
        <path d="M48 23.79C48 29.2269 46.1148 34.4955 42.6657 38.6983C39.2166 42.901 34.417 45.7778 29.0846 46.8385C23.7522 47.8992 18.2171 47.0781 13.4222 44.5152C8.62731 41.9523 4.86942 37.8061 2.78883 32.7831C0.708239 27.7601 0.433668 22.1711 2.0119 16.9684C3.59013 11.7656 6.92352 7.27106 11.4441 4.2505C15.9647 1.22995 21.3927 -0.129706 26.8034 0.403198C32.2141 0.936101 37.2726 3.3286 41.117 7.17303L38.5485 9.74152C35.2983 6.49133 31.0217 4.46864 26.4474 4.01811C21.873 3.56757 17.284 4.71707 13.4622 7.27073C9.64032 9.8244 6.82218 13.6242 5.48789 18.0228C4.15361 22.4213 4.38574 27.1465 6.14473 31.393C7.90373 35.6396 11.0808 39.1449 15.1345 41.3117C19.1882 43.4785 23.8678 44.1726 28.376 43.2759C32.8841 42.3792 36.9419 39.947 39.8579 36.3939C42.7738 32.8408 44.3676 28.3865 44.3676 23.79H48Z" fill="white"/>
        <path d="M16.0159 39.0958C12.4748 37.1329 9.72382 34.003 8.23174 30.2392C6.73967 26.4755 6.59878 22.3108 7.83309 18.4548C9.0674 14.5988 11.6005 11.2901 15.0009 9.09244C18.4012 6.89477 22.4584 5.9441 26.4811 6.40243C30.5038 6.86076 34.2431 8.69972 37.0619 11.606C39.8807 14.5122 41.6047 18.306 41.9399 22.3408C42.2752 26.3756 41.2011 30.4018 38.9006 33.7335C36.6001 37.0651 33.2156 39.496 29.3237 40.612L28.5781 38.0118C31.8684 37.0683 34.7298 35.0132 36.6747 32.1965C38.6196 29.3798 39.5277 25.9759 39.2442 22.5648C38.9608 19.1536 37.5033 15.9463 35.1202 13.4893C32.7371 11.0322 29.5758 9.4775 26.1749 9.09002C22.774 8.70254 19.3439 9.50626 16.4692 11.3642C13.5944 13.2222 11.4528 16.0195 10.4093 19.2795C9.36578 22.5394 9.48489 26.0604 10.7463 29.2424C12.0078 32.4243 14.3335 35.0705 17.3273 36.73L16.0159 39.0958Z" fill="white"/>
        <path d="M24.5 11.29C27.3919 11.29 30.1944 12.2928 32.4299 14.1274C34.6654 15.962 36.1956 18.515 36.7598 21.3514C37.324 24.1878 36.8873 27.132 35.524 29.6825C34.1608 32.233 31.9554 34.2318 29.2835 35.3385C26.6117 36.4452 23.6389 36.5913 20.8714 35.7518C18.104 34.9123 15.7133 33.1392 14.1066 30.7347C12.5 28.3301 11.7767 25.4428 12.0602 22.5648C12.3437 19.6868 13.6163 16.9961 15.6612 14.9512L17.0274 16.3174C15.2986 18.0463 14.2227 20.321 13.983 22.7542C13.7434 25.1874 14.3548 27.6283 15.7131 29.6612C17.0715 31.6941 19.0927 33.1931 21.4323 33.9029C23.772 34.6126 26.2853 34.4891 28.5442 33.5535C30.803 32.6178 32.6675 30.9279 33.82 28.7717C34.9726 26.6155 35.3418 24.1263 34.8648 21.7283C34.3878 19.3304 33.0941 17.172 31.2042 15.621C29.3142 14.0699 26.9449 13.2222 24.5 13.2222L24.5 11.29Z" fill="white"/>
        <path d="M17.0301 19.7343C17.9685 18.0061 19.477 16.6567 21.2987 15.916C23.1205 15.1754 25.1426 15.0893 27.0207 15.6725C28.8988 16.2556 30.5165 17.4719 31.5983 19.1141C32.6802 20.7563 33.1591 22.7229 32.9535 24.6786C32.748 26.6344 31.8706 28.4583 30.471 29.8397C29.0714 31.2211 27.2361 32.0745 25.2779 32.2545C23.3196 32.4344 21.3595 31.9298 19.7316 30.8266C18.1037 29.7233 16.9086 28.0898 16.3501 26.2043L17.7273 25.7963C18.1915 27.3632 19.1846 28.7207 20.5374 29.6375C21.8902 30.5543 23.5191 30.9737 25.1464 30.8241C26.7738 30.6746 28.2989 29.9654 29.462 28.8175C30.6251 27.6695 31.3542 26.1537 31.525 24.5285C31.6959 22.9032 31.2979 21.269 30.3989 19.9043C29.4999 18.5396 28.1555 17.5288 26.5948 17.0442C25.034 16.5596 23.3536 16.6311 21.8397 17.2466C20.3258 17.8621 19.0722 18.9835 18.2924 20.4196L17.0301 19.7343Z" fill="white"/>
        <path d="M28.2197 26.3227C27.6337 27.1833 26.7675 27.8141 25.7687 28.1076C24.7698 28.4011 23.7001 28.3392 22.7417 27.9324C21.7834 27.5256 20.9958 26.7991 20.513 25.8767C20.0303 24.9543 19.8823 23.893 20.0943 22.8737C20.3063 21.8544 20.8652 20.9402 21.6757 20.2868C22.4862 19.6334 23.4982 19.2812 24.5393 19.2903C25.5803 19.2994 26.586 19.6692 27.385 20.3366C28.184 21.0041 28.7269 21.9279 28.921 22.9508L28.0934 23.1079C27.9356 22.2765 27.4944 21.5256 26.845 20.9831C26.1955 20.4406 25.3781 20.14 24.5319 20.1326C23.6858 20.1253 22.8632 20.4115 22.2044 20.9426C21.5456 21.4737 21.0914 22.2168 20.9191 23.0453C20.7467 23.8737 20.867 24.7363 21.2594 25.4861C21.6517 26.2358 22.2919 26.8263 23.0709 27.157C23.8498 27.4876 24.7193 27.5379 25.5312 27.2994C26.3431 27.0608 27.0471 26.5481 27.5234 25.8486L28.2197 26.3227Z" fill="white"/>
        <path d="M23.7068 21.4192C24.2553 21.2357 24.8504 21.248 25.3909 21.4541C25.9313 21.6602 26.3835 22.0473 26.6705 22.5495C26.9575 23.0516 27.0615 23.6378 26.9648 24.208C26.8681 24.7783 26.5767 25.2973 26.1402 25.6768C25.7037 26.0563 25.1491 26.2726 24.5709 26.289C23.9928 26.3054 23.4268 26.1209 22.9695 25.7668C22.5122 25.4127 22.1918 24.9109 22.0629 24.3471C21.934 23.7832 22.0046 23.1922 22.2627 22.6745L23.1394 23.1117C22.9825 23.4264 22.9395 23.7859 23.0179 24.1288C23.0963 24.4717 23.2911 24.7768 23.5693 24.9921C23.8474 25.2075 24.1916 25.3197 24.5431 25.3098C24.8947 25.2998 25.232 25.1682 25.4975 24.9374C25.7629 24.7067 25.9402 24.391 25.999 24.0442C26.0578 23.6974 25.9945 23.341 25.82 23.0356C25.6454 22.7302 25.3704 22.4948 25.0418 22.3695C24.7131 22.2442 24.3512 22.2367 24.0176 22.3483L23.7068 21.4192Z" fill="white"/>
        <circle cx="24.5" cy="23.79" r="0.5" transform="rotate(-180 24.5 23.79)" fill="white"/>
    </g>
    <!-- icons-->
    <g id="linkedin">
        <rect width="35" height="35" rx="3" fill="white"/>
        <path d="M6.92708 2.73438C5.21558 2.73438 3.82812 4.12183 3.82812 5.83333C3.82812 7.54484 5.21558 8.93229 6.92708 8.93229C8.63859 8.93229 10.026 7.54484 10.026 5.83333C10.026 4.12183 8.63859 2.73438 6.92708 2.73438Z" fill="black"/>
        <path d="M4.01042 11.4844C3.90974 11.4844 3.82812 11.566 3.82812 11.6667V30.625C3.82812 30.7257 3.90974 30.8073 4.01042 30.8073H9.84375C9.94443 30.8073 10.026 30.7257 10.026 30.625V11.6667C10.026 11.566 9.94443 11.4844 9.84375 11.4844H4.01042Z" fill="black"/>
        <path d="M13.4896 11.4844C13.3889 11.4844 13.3073 11.566 13.3073 11.6667V30.625C13.3073 30.7257 13.3889 30.8073 13.4896 30.8073H19.3229C19.4236 30.8073 19.5052 30.7257 19.5052 30.625V20.4167C19.5052 19.6915 19.7933 18.996 20.3061 18.4832C20.8189 17.9704 21.5144 17.6823 22.2396 17.6823C22.9648 17.6823 23.6603 17.9704 24.1731 18.4832C24.6859 18.996 24.974 19.6915 24.974 20.4167V30.625C24.974 30.7257 25.0556 30.8073 25.1562 30.8073H30.9896C31.0903 30.8073 31.1719 30.7257 31.1719 30.625V18.0545C31.1719 14.5155 28.0939 11.7469 24.5727 12.067C23.4867 12.1657 22.4131 12.4357 21.4105 12.8653L19.5052 13.6819V11.6667C19.5052 11.566 19.4236 11.4844 19.3229 11.4844H13.4896Z" fill="black"/>
    </g>

    <g id="github">
        <path fill-rule="evenodd" clip-rule="evenodd" d="M17.5001 1.09375C8.2342 1.09375 0.729248 8.5987 0.729248 17.8646C0.729248 25.2857 5.5299 31.5538 12.1963 33.7759C13.0348 33.9227 13.3493 33.4195 13.3493 32.9793C13.3493 32.581 13.3283 31.2603 13.3283 29.8557C9.11467 30.6314 8.02456 28.8285 7.68914 27.8852C7.50047 27.403 6.68289 25.9146 5.97013 25.5163C5.38315 25.2018 4.54461 24.4262 5.94917 24.4052C7.26987 24.3842 8.21323 25.6211 8.52768 26.1242C10.0371 28.6608 12.4479 27.948 13.4122 27.5078C13.5589 26.4177 13.9992 25.684 14.4813 25.2647C10.7498 24.8454 6.8506 23.399 6.8506 16.9841C6.8506 15.1603 7.50047 13.6509 8.56961 12.477C8.4019 12.0577 7.81492 10.3387 8.73732 8.03268C8.73732 8.03268 10.1419 7.59245 13.3493 9.75169C14.691 9.37435 16.1165 9.18568 17.542 9.18568C18.9675 9.18568 20.393 9.37435 21.7347 9.75169C24.9421 7.57148 26.3467 8.03268 26.3467 8.03268C27.2691 10.3387 26.6821 12.0577 26.5144 12.477C27.5835 13.6509 28.2334 15.1393 28.2334 16.9841C28.2334 23.4199 24.3132 24.8454 20.5817 25.2647C21.1897 25.7888 21.7138 26.7951 21.7138 28.3673C21.7138 30.6104 21.6928 32.4133 21.6928 32.9793C21.6928 33.4195 22.0072 33.9436 22.8458 33.7759C29.4703 31.5538 34.2709 25.2647 34.2709 17.8646C34.2709 8.5987 26.766 1.09375 17.5001 1.09375Z" fill="white"/>
    </g>

    <g id="telegram">
        <path d="M36.7527 0.38643L1.31463 14.2583C-0.111463 14.9043 -0.593806 16.1979 0.969943 16.9L10.0613 19.8328L32.0432 6.04268C33.2434 5.17696 34.4722 5.4078 33.4148 6.36015L14.5354 23.712L13.9424 31.0553C14.4917 32.1891 15.4974 32.1944 16.139 31.6308L21.3623 26.6139L30.308 33.4137C32.3857 34.6623 33.5163 33.8565 33.9633 31.568L39.8309 3.36528C40.4401 0.548323 39.4012 -0.692859 36.7527 0.38643Z" fill="white"/>
    </g>
    <!-- technologies-->
    <g id="gitVector">
        <path d="M33.7891 69.7917C33.9627 69.5312 33.8976 69.2491 33.5938 68.9453C33.2031 68.6415 32.8993 68.5981 32.6823 68.8151C32.5087 69.0755 32.5738 69.3576 32.8776 69.6615C33.2682 69.9653 33.572 70.0087 33.7891 69.7917ZM31.9661 67.1224C31.7491 66.8186 31.4887 66.7318 31.1849 66.862C30.9245 67.0356 30.9245 67.296 31.1849 67.6432C31.4887 67.9904 31.7491 68.099 31.9661 67.9688C32.2266 67.7951 32.2266 67.513 31.9661 67.1224ZM29.2969 64.5182C29.3837 64.3446 29.2752 64.171 28.9714 63.9974C28.6675 63.9106 28.4939 63.954 28.4505 64.1276C28.3203 64.3446 28.4071 64.5182 28.7109 64.6484C29.0582 64.7352 29.2535 64.6918 29.2969 64.5182ZM30.6641 66.0156C30.7509 65.9722 30.7834 65.8746 30.7617 65.7227C30.74 65.5707 30.6641 65.4514 30.5339 65.3646C30.2734 65.0608 30.0564 64.9957 29.8828 65.1693C29.7092 65.3429 29.7309 65.5816 29.9479 65.8854C30.2083 66.1458 30.447 66.1892 30.6641 66.0156ZM36.263 70.8984C36.3498 70.5946 36.1545 70.3559 35.6771 70.1823C35.2865 70.0521 35.0043 70.1389 34.8307 70.4427C34.7439 70.7465 34.9392 70.9852 35.4167 71.1589C35.8073 71.2891 36.0894 71.2023 36.263 70.8984ZM38.9974 71.0938C38.9974 70.7465 38.737 70.5729 38.2161 70.5729C37.7821 70.5729 37.5651 70.7465 37.5651 71.0938C37.5651 71.441 37.8038 71.6146 38.2812 71.6146C38.7587 71.6146 38.9974 71.441 38.9974 71.0938ZM41.5365 70.638C41.4496 70.3342 41.1675 70.2257 40.6901 70.3125C40.2127 70.3993 40.0174 70.5946 40.1042 70.8984C40.191 71.2457 40.4514 71.3759 40.8854 71.2891C41.3194 71.2023 41.5365 70.9852 41.5365 70.638ZM83.3333 50C83.3333 40.7986 80.0781 32.9427 73.5677 26.4323C67.0573 19.9219 59.2014 16.6667 50 16.6667C40.7986 16.6667 32.9427 19.9219 26.4323 26.4323C19.9219 32.9427 16.6667 40.7986 16.6667 50C16.6667 57.2483 18.7934 63.7695 23.0469 69.5638C27.3003 75.3581 32.7691 79.3837 39.4531 81.6406C40.2344 81.7708 40.8095 81.6623 41.1784 81.3151C41.5473 80.9679 41.7318 80.5339 41.7318 80.013C41.7318 77.7561 41.7101 75.6944 41.6667 73.8281C41.4062 73.8715 41.0699 73.9258 40.6576 73.9909C40.2452 74.056 39.4748 74.0994 38.3464 74.1211C37.2179 74.1428 36.1762 74.056 35.2214 73.8607C34.2665 73.6654 33.3225 73.2313 32.3893 72.5586C31.4562 71.8858 30.816 70.9852 30.4687 69.8568C29.4705 67.296 28.2335 65.6901 26.7578 65.0391C26.671 64.9957 26.5733 64.9197 26.4648 64.8112L25.944 64.2904L25.4883 63.6719L25.7487 63.1836L27.0182 62.9557C27.2786 62.9557 27.6042 62.9991 27.9948 63.0859C28.3854 63.1727 29.0365 63.5091 29.9479 64.095C30.8594 64.681 31.5755 65.4514 32.0964 66.4062C32.7908 67.6215 33.6046 68.533 34.5378 69.1406C35.4709 69.7483 36.4149 70.0521 37.3698 70.0521C38.3246 70.0521 39.1493 69.9761 39.8438 69.8242C40.5382 69.6723 41.1892 69.4661 41.7969 69.2057C42.1007 67.1658 42.8168 65.6684 43.9453 64.7135C41.8186 64.4531 39.9523 64.0516 38.3464 63.5091C36.7405 62.9666 35.1562 62.1202 33.5938 60.9701C32.0312 59.8199 30.8268 58.1706 29.9805 56.0221C29.1341 53.8737 28.7109 51.2804 28.7109 48.2422C28.7109 44.8134 29.8611 41.8403 32.1615 39.3229C31.1198 36.6319 31.2283 33.6806 32.487 30.4687C33.3116 30.2083 34.4944 30.3711 36.0352 30.957C37.576 31.543 38.8889 32.1832 39.974 32.8776L41.6667 33.9193C44.184 33.1814 46.9618 32.8125 50 32.8125C53.0382 32.8125 55.816 33.1814 58.3333 33.9193C58.8108 33.6155 59.4293 33.2248 60.1888 32.7474C60.9483 32.27 62.1528 31.7057 63.8021 31.0547C65.4514 30.4036 66.6884 30.2083 67.513 30.4687C68.7717 33.6806 68.8802 36.6319 67.8385 39.3229C70.1389 41.8403 71.2891 44.8134 71.2891 48.2422C71.2891 50.7161 70.9852 52.8971 70.3776 54.7852C69.77 56.6732 68.9996 58.1923 68.0664 59.3424C67.1332 60.4926 65.9722 61.4583 64.5833 62.2396C63.1944 63.0208 61.8381 63.5851 60.5143 63.9323C59.1905 64.2795 57.704 64.5399 56.0547 64.7135C57.5738 66.059 58.3333 68.1207 58.3333 70.8984C58.3333 72.6345 58.3225 74.566 58.3008 76.6927C58.2791 78.8194 58.2682 79.9262 58.2682 80.013C58.2682 80.5339 58.4527 80.9679 58.8216 81.3151C59.1905 81.6623 59.7656 81.7708 60.5469 81.6406C67.2309 79.3837 72.6997 75.3581 76.9531 69.5638C81.2066 63.7695 83.3333 57.2483 83.3333 50ZM100 18.75V81.25C100 86.4149 98.1662 90.8312 94.4987 94.4987C90.8312 98.1662 86.4149 100 81.25 100H18.75C13.5851 100 9.16884 98.1662 5.5013 94.4987C1.83377 90.8312 0 86.4149 0 81.25V18.75C0 13.5851 1.83377 9.16884 5.5013 5.5013C9.16884 1.83377 13.5851 0 18.75 0H81.25C86.4149 0 90.8312 1.83377 94.4987 5.5013C98.1662 9.16884 100 13.5851 100 18.75Z" fill="white"/>
    </g>

    <g id="figma">
        <g clip-path="url(#clip0_4533_1212)">
            <path d="M76.5625 0H23.4375C10.4933 0 0 10.4933 0 23.4375V76.5625C0 89.5067 10.4933 100 23.4375 100H76.5625C89.5067 100 100 89.5067 100 76.5625V23.4375C100 10.4933 89.5067 0 76.5625 0Z" fill="#F4F2ED"/>
            <mask id="mask0_4533_1212" style="mask-type:luminance" maskUnits="userSpaceOnUse" x="23" y="10" width="53" height="80">
                <path d="M23.8281 10.9375H75.9219V89.0625H23.8281V10.9375Z" fill="white"/>
            </mask>
            <g mask="url(#mask0_4533_1212)">
                <path d="M36.8543 89.0625C44.0418 89.0625 49.875 83.2293 49.875 76.0418V63.0207H36.8543C29.6668 63.0207 23.8333 68.8543 23.8333 76.0418C23.8333 83.2293 29.6668 89.0625 36.8543 89.0625Z" fill="#0ACF83"/>
                <path d="M23.8333 50C23.8333 42.8125 29.6668 36.9793 36.8543 36.9793H49.875V63.0207H36.8543C29.6668 63.0207 23.8333 57.1875 23.8333 50Z" fill="#A259FF"/>
                <path d="M23.8333 23.9582C23.8333 16.7707 29.6668 10.9375 36.8543 10.9375H49.875V36.9793H36.8543C29.6668 36.9793 23.8333 31.1457 23.8333 23.9582Z" fill="#F24E1E"/>
                <path d="M49.875 10.9375H62.8957C70.0832 10.9375 75.9168 16.7707 75.9168 23.9582C75.9168 31.1457 70.0832 36.9793 62.8957 36.9793H49.875V10.9375Z" fill="#FF7262"/>
                <path d="M75.9168 50C75.9168 57.1875 70.0832 63.0207 62.8957 63.0207C55.7082 63.0207 49.875 57.1875 49.875 50C49.875 42.8125 55.7082 36.9793 62.8957 36.9793C70.0832 36.9793 75.9168 42.8125 75.9168 50Z" fill="#1ABCFE"/>
            </g>
        </g>
        <defs>
            <clipPath id="clip0_4533_1212">
                <rect width="100" height="100" fill="white"/>
            </clipPath>
        </defs>
    </g>

    <g id="git">
        <g clip-path="url(#clip0_4533_1197)">
            <path d="M76.5625 0H23.4375C10.4933 0 0 10.4933 0 23.4375V76.5625C0 89.5067 10.4933 100 23.4375 100H76.5625C89.5067 100 100 89.5067 100 76.5625V23.4375C100 10.4933 89.5067 0 76.5625 0Z" fill="#F03C2E"/>
            <mask id="mask0_4533_1197" style="mask-type:luminance" maskUnits="userSpaceOnUse" x="10" y="10" width="80" height="80">
                <path d="M10.9375 10.9375H89.0625V89.0625H10.9375V10.9375Z" fill="white"/>
            </mask>
            <g mask="url(#mask0_4533_1197)">
                <path d="M87.5875 46.5211L53.4786 12.4121C52.7753 11.7081 51.8789 11.2286 50.903 11.0343C49.927 10.8401 48.9153 10.9399 47.9961 11.3211C47.3858 11.5741 46.8314 11.9448 46.3645 12.4121L39.2844 19.4922L48.2688 28.4766C50.3586 27.7442 52.7512 28.2446 54.416 29.9098C55.2086 30.7038 55.7619 31.7048 56.0127 32.7982C56.2635 33.8917 56.2017 35.0337 55.8344 36.0938L64.4942 44.7535C66.5891 44.0309 69.0059 44.4969 70.6782 46.1743C71.5158 47.0116 72.0862 48.0786 72.3171 49.2403C72.5481 50.4019 72.4291 51.606 71.9754 52.7C71.3671 54.1668 70.2013 55.332 68.7342 55.9395C67.267 56.5469 65.6187 56.5469 64.1516 55.9395C63.425 55.6383 62.7649 55.1973 62.209 54.641C60.4512 52.8832 60.0168 50.2953 60.9055 48.1297L52.8293 40.0536V61.3063C53.4156 61.5963 53.9513 61.9788 54.416 62.4391C55.5388 63.5619 56.1696 65.0847 56.1696 66.6725C56.1696 68.2603 55.5388 69.7831 54.416 70.9059C53.2933 72.0287 51.7705 72.6594 50.1827 72.6594C48.5948 72.6594 47.072 72.0287 45.9493 70.9059C45.1112 70.069 44.5405 69.0022 44.3092 67.8406C44.0779 66.6791 44.1965 65.475 44.65 64.3809C44.9511 63.6544 45.3926 62.9946 45.9493 62.4391C46.5278 61.8629 47.17 61.4258 47.9098 61.1328V39.6825C47.1757 39.3823 46.5091 38.9383 45.9493 38.3766C45.1087 37.5369 44.5372 36.4659 44.3076 35.3001C44.078 34.1343 44.2008 32.9266 44.6602 31.8309L35.7981 22.9739L12.4094 46.3379C11.7053 47.0415 11.2257 47.9382 11.0314 48.9145C10.8371 49.8907 10.9367 50.9027 11.3176 51.8223C11.5708 52.4329 11.9418 52.9876 12.4094 53.4547L46.5207 87.561C46.9877 88.0282 47.5422 88.3989 48.1524 88.652C49.3853 89.1623 50.7703 89.1623 52.0032 88.652C52.6134 88.3989 53.1678 88.0282 53.6348 87.561L87.5875 53.6621C88.055 53.195 88.4259 52.6403 88.679 52.0298C88.932 51.4192 89.0624 50.7648 89.0625 50.1039C89.0626 49.443 88.9323 48.7884 88.6792 48.1778C88.4261 47.5672 88.0552 47.0125 87.5875 46.5453" fill="white"/>
            </g>
        </g>
        <defs>
            <clipPath id="clip0_4533_1197">
                <rect width="50" height="50" fill="white"/>
            </clipPath>
        </defs>
    </g>


    <g id="drawing">

        <g opacity="0.5">
            <path d="M590.154 436.461L513.308 359.615" stroke="#505685"/>
            <path d="M513.308 359.615L590.154 282.769" stroke="#505685"/>
            <path d="M513.308 359.615L410.846 257.154" stroke="#505685"/>
            <path d="M590.154 282.769L487.693 180.307" stroke="url(#paint0_linear_4533_754)"/>
            <path d="M410.846 257.154L487.693 180.307" stroke="#505685"/>
            <path d="M513.308 359.615L590.154 282.769" stroke="url(#paint1_linear_4533_754)"/>
            <path d="M308.385 1L385.231 77.8462" stroke="#505685"/>
            <path d="M231.539 77.8459L308.385 154.692" stroke="#505685"/>
            <path d="M385.231 77.8459L308.385 154.692" stroke="#505685"/>
            <path d="M308.385 1L231.538 77.8461" stroke="#505685"/>
            <path d="M385.231 77.8459L487.693 180.307" stroke="url(#paint2_linear_4533_754)"/>
            <path d="M308.385 154.692L410.846 257.154" stroke="#505685"/>
            <path d="M385.231 77.8459L308.385 154.692" stroke="#505685"/>
            <path d="M410.846 257.154L487.693 334" stroke="#505685"/>
            <path d="M334 334L410.846 410.846" stroke="#505685"/>
            <path d="M487.693 334L410.846 410.846" stroke="#505685"/>
            <path d="M487.692 334L590.154 436.461" stroke="#505685"/>
            <path d="M410.846 410.846L513.308 513.307" stroke="#505685"/>
            <path d="M590.154 436.461L513.308 513.307" stroke="url(#paint3_linear_4533_754)"/>
            <path d="M487.692 334L410.846 410.846" stroke="#505685"/>
            <path d="M334 334L257.154 257.154" stroke="#505685"/>
            <path d="M410.847 257.154L334.001 180.308" stroke="#505685"/>
            <path d="M257.154 257.154L334 180.308" stroke="#505685"/>
            <path d="M257.154 257.154L154.693 154.692" stroke="#505685"/>
            <path d="M334 180.307L231.539 77.8458" stroke="#505685"/>
            <path d="M154.693 154.692L231.539 77.846" stroke="url(#paint4_linear_4533_754)"/>
            <path d="M257.154 257.154L334 180.308" stroke="#505685"/>
            <path d="M436.461 590.154L359.615 513.308" stroke="#505685"/>
            <path d="M513.308 513.308L436.461 436.462" stroke="#505685"/>
            <path d="M359.615 513.308L436.461 436.462" stroke="#505685"/>
            <path d="M436.461 590.154L513.307 513.308" stroke="#505685"/>
            <path d="M359.615 513.308L257.153 410.847" stroke="#505685"/>
            <path d="M436.461 436.462L334 334" stroke="#505685"/>
            <path d="M257.154 410.847L334 334.001" stroke="#505685"/>
            <path d="M359.615 513.308L436.461 436.462" stroke="url(#paint5_linear_4533_754)"/>
            <path d="M154.692 154.692L231.538 231.539" stroke="#505685"/>
            <path d="M77.8459 231.539L154.692 308.385" stroke="#505685"/>
            <path d="M231.538 231.539L154.692 308.385" stroke="#505685"/>
            <path d="M154.692 154.692L77.846 231.539" stroke="#505685"/>
            <path d="M231.539 231.539L334 334" stroke="url(#paint6_linear_4533_754)"/>
            <path d="M154.692 308.385L257.154 410.846" stroke="#505685"/>
            <path d="M231.539 231.539L154.692 308.385" stroke="#505685"/>
            <path d="M257.154 410.847L334 487.693" stroke="#505685"/>
            <path d="M180.307 487.693L257.154 564.539" stroke="#505685"/>
            <path d="M334 487.693L257.154 564.539" stroke="#505685"/>
            <path d="M334 487.693L436.462 590.154" stroke="url(#paint7_linear_4533_754)"/>
            <path d="M257.154 564.539L359.615 667" stroke="url(#paint8_linear_4533_754)"/>
            <path d="M436.462 590.154L359.616 667" stroke="#505685"/>
            <path d="M334 487.693L257.154 564.539" stroke="#505685"/>
            <path d="M180.307 487.693L103.461 410.846" stroke="#505685"/>
            <path d="M257.154 410.847L180.308 334.001" stroke="#505685"/>
            <path d="M103.461 410.847L180.308 334.001" stroke="#505685"/>
            <path d="M103.461 410.847L0.999875 308.385" stroke="#505685"/>
            <path d="M180.307 334L77.8458 231.539" stroke="#505685"/>
            <path d="M1 308.385L77.8461 231.539" stroke="#505685"/>
            <path d="M103.461 410.847L180.308 334.001" stroke="url(#paint9_linear_4533_754)"/>
        </g>
        <defs>
            <linearGradient id="paint0_linear_4533_754" x1="588.84" y1="282.769" x2="466.281" y2="232.198" gradientUnits="userSpaceOnUse">
                <stop stop-color="#FF6B00"/>
                <stop offset="1" stop-color="#505685"/>
            </linearGradient>
            <linearGradient id="paint1_linear_4533_754" x1="533.093" y1="359.615" x2="567.856" y2="306.949" gradientUnits="userSpaceOnUse">
                <stop stop-color="#505685"/>
                <stop offset="1" stop-color="#FF6B00"/>
            </linearGradient>
            <linearGradient id="paint2_linear_4533_754" x1="385.231" y1="104.226" x2="455.453" y2="150.576" gradientUnits="userSpaceOnUse">
                <stop stop-color="#505685"/>
                <stop offset="0.421875" stop-color="#FF6B00"/>
                <stop offset="1" stop-color="#505685"/>
            </linearGradient>
            <linearGradient id="paint3_linear_4533_754" x1="570.369" y1="436.461" x2="535.606" y2="489.127" gradientUnits="userSpaceOnUse">
                <stop stop-color="#505685"/>
                <stop offset="0.0001" stop-color="#505685"/>
                <stop offset="0.317708" stop-color="#FF6B00"/>
                <stop offset="1" stop-color="#505685"/>
            </linearGradient>
            <linearGradient id="paint4_linear_4533_754" x1="154.693" y1="154.692" x2="192.267" y2="61.9373" gradientUnits="userSpaceOnUse">
                <stop stop-color="#505685"/>
                <stop offset="0.494792" stop-color="#FF6B00"/>
                <stop offset="1" stop-color="#505685"/>
            </linearGradient>
            <linearGradient id="paint5_linear_4533_754" x1="379.4" y1="513.308" x2="414.163" y2="460.642" gradientUnits="userSpaceOnUse">
                <stop stop-color="#FF6B00"/>
                <stop offset="0.234375" stop-color="#505685"/>
            </linearGradient>
            <linearGradient id="paint6_linear_4533_754" x1="257.482" y1="257.811" x2="347.977" y2="294.701" gradientUnits="userSpaceOnUse">
                <stop stop-color="#505685"/>
                <stop offset="0.75" stop-color="#FF6B00"/>
                <stop offset="1" stop-color="#505685"/>
            </linearGradient>
            <linearGradient id="paint7_linear_4533_754" x1="334" y1="514.073" x2="404.222" y2="560.423" gradientUnits="userSpaceOnUse">
                <stop stop-color="#505685"/>
                <stop offset="0.0001" stop-color="#505685"/>
                <stop offset="0.317708" stop-color="#FF6B00"/>
                <stop offset="1" stop-color="#505685"/>
            </linearGradient>
            <linearGradient id="paint8_linear_4533_754" x1="257.154" y1="590.919" x2="327.376" y2="637.269" gradientUnits="userSpaceOnUse">
                <stop stop-color="#505685"/>
                <stop offset="0.0001" stop-color="#505685"/>
                <stop offset="0.317708" stop-color="#FF6B00"/>
                <stop offset="1" stop-color="#505685"/>
            </linearGradient>
            <linearGradient id="paint9_linear_4533_754" x1="103.461" y1="410.847" x2="141.036" y2="318.092" gradientUnits="userSpaceOnUse">
                <stop stop-color="#505685"/>
                <stop offset="0.0582928" stop-color="#FF6B00"/>
                <stop offset="1" stop-color="#505685"/>
            </linearGradient>
        </defs>


    </g>


</svg>



