<svg width="47" height="48" viewBox="0 0 47 48" fill="none" xmlns="http://www.w3.org/2000/svg">
    <!-- header-->
    <g id="ellipse1">
        <path d="M47 23.79C47 29.2269 45.1148 34.4955 41.6657 38.6983C38.2166 42.901 33.417 45.7778 28.0846 46.8385C22.7522 47.8992 17.2171 47.0781 12.4222 44.5152C7.62731 41.9523 3.86942 37.8061 1.78883 32.7831C-0.291761 27.7601 -0.566332 22.1711 1.0119 16.9684C2.59013 11.7656 5.92352 7.27106 10.4441 4.2505C14.9647 1.22995 20.3927 -0.129706 25.8034 0.403198C31.2141 0.936101 36.2726 3.3286 40.117 7.17303L37.5485 9.74152C34.2983 6.49133 30.0217 4.46864 25.4474 4.01811C20.873 3.56757 16.284 4.71707 12.4622 7.27073C8.64032 9.8244 5.82218 13.6242 4.48789 18.0228C3.15361 22.4213 3.38574 27.1465 5.14473 31.393C6.90373 35.6396 10.0808 39.1449 14.1345 41.3117C18.1882 43.4785 22.8678 44.1726 27.376 43.2759C31.8841 42.3792 35.9419 39.947 38.8579 36.3939C41.7738 32.8408 43.3676 28.3865 43.3676 23.79H47Z"
              fill="white"/>
        <path d="M9.01585 33.0958C5.47476 31.1329 2.72382 28.003 1.23174 24.2392C-0.260333 20.4755 -0.401221 16.3108 0.83309 12.4548C2.0674 8.59883 4.60053 5.29012 8.00088 3.09244C11.4012 0.894766 15.4584 -0.0558995 19.4811 0.402429C23.5038 0.860756 27.2431 2.69972 30.0619 5.60598C32.8807 8.51224 34.6047 12.306 34.9399 16.3408C35.2752 20.3756 34.2011 24.4018 31.9006 27.7335C29.6001 31.0651 26.2156 33.496 22.3237 34.612L21.5781 32.0118C24.8684 31.0683 27.7298 29.0132 29.6747 26.1965C31.6196 23.3798 32.5277 19.9759 32.2442 16.5648C31.9608 13.1536 30.5033 9.9463 28.1202 7.48926C25.7371 5.03222 22.5758 3.4775 19.1749 3.09002C15.774 2.70254 12.3439 3.50626 9.46916 5.36424C6.59441 7.22222 4.45282 10.0195 3.4093 13.2795C2.36578 16.5394 2.48489 20.0604 3.74633 23.2424C5.00778 26.4243 7.33351 29.0705 10.3273 30.73L9.01585 33.0958Z"
              fill="white"/>
        <path  d="M12.5 0.290036C15.3919 0.290036 18.1944 1.29278 20.4299 3.1274C22.6654 4.96203 24.1956 7.51503 24.7598 10.3514C25.324 13.1878 24.8873 16.132 23.524 18.6825C22.1608 21.233 19.9554 23.2318 17.2835 24.3385C14.6117 25.4452 11.6389 25.5913 8.87144 24.7518C6.10403 23.9123 3.71331 22.1392 2.10663 19.7347C0.499954 17.3301 -0.223269 14.4428 0.0601908 11.5648C0.34365 8.68681 1.61625 5.99611 3.66116 3.9512L5.02739 5.31742C3.29856 7.04625 2.22266 9.32105 1.98301 11.7542C1.74337 14.1874 2.3548 16.6283 3.71314 18.6612C5.07147 20.6941 7.09266 22.1931 9.43231 22.9029C11.772 23.6126 14.2853 23.4891 16.5442 22.5535C18.803 21.6178 20.6675 19.9279 21.82 17.7717C22.9726 15.6155 23.3418 13.1263 22.8648 10.7283C22.3878 8.33039 21.0941 6.17201 19.2042 4.62096C17.3142 3.06991 14.9449 2.22216 12.5 2.22216L12.5 0.290036Z" fill="white"/>

        <path id="Ellipse 4" d="M1.03014 4.73427C1.96848 3.00606 3.47703 1.65667 5.29874 0.916024C7.12046 0.175376 9.14263 0.0892966 11.0207 0.672451C12.8988 1.25561 14.5165 2.47191 15.5983 4.11413C16.6802 5.75635 17.1591 7.72287 16.9535 9.67861C16.748 11.6344 15.8706 13.4583 14.471 14.8397C13.0714 16.2211 11.2361 17.0745 9.27785 17.2545C7.31958 17.4344 5.3595 16.9298 3.73159 15.8266C2.10367 14.7233 0.908642 13.0898 0.35012 11.2043L1.72732 10.7963C2.19146 12.3632 3.18455 13.7207 4.53738 14.6375C5.89021 15.5543 7.51907 15.9737 9.14642 15.8241C10.7738 15.6746 12.2989 14.9654 13.462 13.8175C14.6251 12.6695 15.3542 11.1537 15.525 9.52847C15.6959 7.90321 15.2979 6.269 14.3989 4.90429C13.4999 3.53958 12.1555 2.52881 10.5948 2.04419C9.03405 1.55958 7.35359 1.63111 5.83972 2.24661C4.32584 2.8621 3.07221 3.98346 2.29243 5.41964L1.03014 4.73427Z" fill="white"/>

        <path id="Ellipse 5" d="M8.21967 7.32274C7.63374 8.1833 6.76754 8.81407 5.76867 9.10758C4.7698 9.40109 3.70007 9.33917 2.74173 8.93239C1.78339 8.5256 0.995754 7.7991 0.513015 6.87669C0.0302758 5.95427 -0.117694 4.89301 0.0943167 3.87373C0.306328 2.85445 0.865202 1.94021 1.67571 1.28679C2.48623 0.633372 3.49823 0.281203 4.53929 0.290288C5.58035 0.299374 6.58605 0.669151 7.38503 1.33661C8.18402 2.00408 8.72685 2.92793 8.92104 3.95076L8.09344 4.10788C7.9356 3.27653 7.49438 2.52562 6.84496 1.9831C6.19555 1.44059 5.37811 1.14003 4.53194 1.13265C3.68576 1.12526 2.86321 1.41151 2.20442 1.94261C1.54563 2.47371 1.09138 3.2168 0.919056 4.04527C0.746733 4.87375 0.867003 5.73634 1.25938 6.48608C1.65175 7.23582 2.29194 7.82632 3.07088 8.15696C3.84982 8.4876 4.7193 8.53792 5.53118 8.29936C6.34306 8.06079 7.04711 7.5481 7.52336 6.84863L8.21967 7.32274Z" fill="white"/>

        <path id="Ellipse 6" d="M1.70677 0.419222C2.25527 0.235696 2.85044 0.248033 3.39086 0.45413C3.93128 0.660228 4.38352 1.04733 4.67053 1.54949C4.95754 2.05165 5.06155 2.63778 4.96484 3.20803C4.86814 3.77827 4.5767 4.29735 4.14018 4.6768C3.70367 5.05626 3.14908 5.27262 2.57093 5.28903C1.99277 5.30543 1.42682 5.12085 0.96949 4.76675C0.512164 4.41266 0.191766 3.91094 0.0628866 3.34709C-0.0659927 2.78325 0.00462127 2.19216 0.262697 1.67454L1.13943 2.11166C0.98249 2.42644 0.939548 2.78591 1.01792 3.1288C1.0963 3.47169 1.29114 3.7768 1.56926 3.99214C1.84737 4.20748 2.19155 4.31973 2.54315 4.30975C2.89474 4.29978 3.232 4.1682 3.49746 3.93744C3.76292 3.70668 3.94015 3.39101 3.99896 3.04423C4.05777 2.69744 3.99452 2.34099 3.81998 2.03562C3.64545 1.73024 3.37042 1.49483 3.04177 1.36949C2.71312 1.24416 2.35118 1.23666 2.01762 1.34826L1.70677 0.419222Z" fill="white"/>
    </g>
    <!-- icons-->
    <g id="linkedin">
        <rect width="35" height="35" rx="3" fill="white"/>
        <path d="M6.92708 2.73438C5.21558 2.73438 3.82812 4.12183 3.82812 5.83333C3.82812 7.54484 5.21558 8.93229 6.92708 8.93229C8.63859 8.93229 10.026 7.54484 10.026 5.83333C10.026 4.12183 8.63859 2.73438 6.92708 2.73438Z" fill="black"/>
        <path d="M4.01042 11.4844C3.90974 11.4844 3.82812 11.566 3.82812 11.6667V30.625C3.82812 30.7257 3.90974 30.8073 4.01042 30.8073H9.84375C9.94443 30.8073 10.026 30.7257 10.026 30.625V11.6667C10.026 11.566 9.94443 11.4844 9.84375 11.4844H4.01042Z" fill="black"/>
        <path d="M13.4896 11.4844C13.3889 11.4844 13.3073 11.566 13.3073 11.6667V30.625C13.3073 30.7257 13.3889 30.8073 13.4896 30.8073H19.3229C19.4236 30.8073 19.5052 30.7257 19.5052 30.625V20.4167C19.5052 19.6915 19.7933 18.996 20.3061 18.4832C20.8189 17.9704 21.5144 17.6823 22.2396 17.6823C22.9648 17.6823 23.6603 17.9704 24.1731 18.4832C24.6859 18.996 24.974 19.6915 24.974 20.4167V30.625C24.974 30.7257 25.0556 30.8073 25.1562 30.8073H30.9896C31.0903 30.8073 31.1719 30.7257 31.1719 30.625V18.0545C31.1719 14.5155 28.0939 11.7469 24.5727 12.067C23.4867 12.1657 22.4131 12.4357 21.4105 12.8653L19.5052 13.6819V11.6667C19.5052 11.566 19.4236 11.4844 19.3229 11.4844H13.4896Z" fill="black"/>
    </g>

    <g id="github">
        <path fill-rule="evenodd" clip-rule="evenodd" d="M17.5001 1.09375C8.2342 1.09375 0.729248 8.5987 0.729248 17.8646C0.729248 25.2857 5.5299 31.5538 12.1963 33.7759C13.0348 33.9227 13.3493 33.4195 13.3493 32.9793C13.3493 32.581 13.3283 31.2603 13.3283 29.8557C9.11467 30.6314 8.02456 28.8285 7.68914 27.8852C7.50047 27.403 6.68289 25.9146 5.97013 25.5163C5.38315 25.2018 4.54461 24.4262 5.94917 24.4052C7.26987 24.3842 8.21323 25.6211 8.52768 26.1242C10.0371 28.6608 12.4479 27.948 13.4122 27.5078C13.5589 26.4177 13.9992 25.684 14.4813 25.2647C10.7498 24.8454 6.8506 23.399 6.8506 16.9841C6.8506 15.1603 7.50047 13.6509 8.56961 12.477C8.4019 12.0577 7.81492 10.3387 8.73732 8.03268C8.73732 8.03268 10.1419 7.59245 13.3493 9.75169C14.691 9.37435 16.1165 9.18568 17.542 9.18568C18.9675 9.18568 20.393 9.37435 21.7347 9.75169C24.9421 7.57148 26.3467 8.03268 26.3467 8.03268C27.2691 10.3387 26.6821 12.0577 26.5144 12.477C27.5835 13.6509 28.2334 15.1393 28.2334 16.9841C28.2334 23.4199 24.3132 24.8454 20.5817 25.2647C21.1897 25.7888 21.7138 26.7951 21.7138 28.3673C21.7138 30.6104 21.6928 32.4133 21.6928 32.9793C21.6928 33.4195 22.0072 33.9436 22.8458 33.7759C29.4703 31.5538 34.2709 25.2647 34.2709 17.8646C34.2709 8.5987 26.766 1.09375 17.5001 1.09375Z" fill="white"/>
    </g>

    <g id="telegram">
        <path d="M36.7527 0.38643L1.31463 14.2583C-0.111463 14.9043 -0.593806 16.1979 0.969943 16.9L10.0613 19.8328L32.0432 6.04268C33.2434 5.17696 34.4722 5.4078 33.4148 6.36015L14.5354 23.712L13.9424 31.0553C14.4917 32.1891 15.4974 32.1944 16.139 31.6308L21.3623 26.6139L30.308 33.4137C32.3857 34.6623 33.5163 33.8565 33.9633 31.568L39.8309 3.36528C40.4401 0.548323 39.4012 -0.692859 36.7527 0.38643Z" fill="white"/>
    </g>
    <!-- technologies-->
    <g id="gitVector">
        <path d="M33.7891 69.7917C33.9627 69.5312 33.8976 69.2491 33.5938 68.9453C33.2031 68.6415 32.8993 68.5981 32.6823 68.8151C32.5087 69.0755 32.5738 69.3576 32.8776 69.6615C33.2682 69.9653 33.572 70.0087 33.7891 69.7917ZM31.9661 67.1224C31.7491 66.8186 31.4887 66.7318 31.1849 66.862C30.9245 67.0356 30.9245 67.296 31.1849 67.6432C31.4887 67.9904 31.7491 68.099 31.9661 67.9688C32.2266 67.7951 32.2266 67.513 31.9661 67.1224ZM29.2969 64.5182C29.3837 64.3446 29.2752 64.171 28.9714 63.9974C28.6675 63.9106 28.4939 63.954 28.4505 64.1276C28.3203 64.3446 28.4071 64.5182 28.7109 64.6484C29.0582 64.7352 29.2535 64.6918 29.2969 64.5182ZM30.6641 66.0156C30.7509 65.9722 30.7834 65.8746 30.7617 65.7227C30.74 65.5707 30.6641 65.4514 30.5339 65.3646C30.2734 65.0608 30.0564 64.9957 29.8828 65.1693C29.7092 65.3429 29.7309 65.5816 29.9479 65.8854C30.2083 66.1458 30.447 66.1892 30.6641 66.0156ZM36.263 70.8984C36.3498 70.5946 36.1545 70.3559 35.6771 70.1823C35.2865 70.0521 35.0043 70.1389 34.8307 70.4427C34.7439 70.7465 34.9392 70.9852 35.4167 71.1589C35.8073 71.2891 36.0894 71.2023 36.263 70.8984ZM38.9974 71.0938C38.9974 70.7465 38.737 70.5729 38.2161 70.5729C37.7821 70.5729 37.5651 70.7465 37.5651 71.0938C37.5651 71.441 37.8038 71.6146 38.2812 71.6146C38.7587 71.6146 38.9974 71.441 38.9974 71.0938ZM41.5365 70.638C41.4496 70.3342 41.1675 70.2257 40.6901 70.3125C40.2127 70.3993 40.0174 70.5946 40.1042 70.8984C40.191 71.2457 40.4514 71.3759 40.8854 71.2891C41.3194 71.2023 41.5365 70.9852 41.5365 70.638ZM83.3333 50C83.3333 40.7986 80.0781 32.9427 73.5677 26.4323C67.0573 19.9219 59.2014 16.6667 50 16.6667C40.7986 16.6667 32.9427 19.9219 26.4323 26.4323C19.9219 32.9427 16.6667 40.7986 16.6667 50C16.6667 57.2483 18.7934 63.7695 23.0469 69.5638C27.3003 75.3581 32.7691 79.3837 39.4531 81.6406C40.2344 81.7708 40.8095 81.6623 41.1784 81.3151C41.5473 80.9679 41.7318 80.5339 41.7318 80.013C41.7318 77.7561 41.7101 75.6944 41.6667 73.8281C41.4062 73.8715 41.0699 73.9258 40.6576 73.9909C40.2452 74.056 39.4748 74.0994 38.3464 74.1211C37.2179 74.1428 36.1762 74.056 35.2214 73.8607C34.2665 73.6654 33.3225 73.2313 32.3893 72.5586C31.4562 71.8858 30.816 70.9852 30.4687 69.8568C29.4705 67.296 28.2335 65.6901 26.7578 65.0391C26.671 64.9957 26.5733 64.9197 26.4648 64.8112L25.944 64.2904L25.4883 63.6719L25.7487 63.1836L27.0182 62.9557C27.2786 62.9557 27.6042 62.9991 27.9948 63.0859C28.3854 63.1727 29.0365 63.5091 29.9479 64.095C30.8594 64.681 31.5755 65.4514 32.0964 66.4062C32.7908 67.6215 33.6046 68.533 34.5378 69.1406C35.4709 69.7483 36.4149 70.0521 37.3698 70.0521C38.3246 70.0521 39.1493 69.9761 39.8438 69.8242C40.5382 69.6723 41.1892 69.4661 41.7969 69.2057C42.1007 67.1658 42.8168 65.6684 43.9453 64.7135C41.8186 64.4531 39.9523 64.0516 38.3464 63.5091C36.7405 62.9666 35.1562 62.1202 33.5938 60.9701C32.0312 59.8199 30.8268 58.1706 29.9805 56.0221C29.1341 53.8737 28.7109 51.2804 28.7109 48.2422C28.7109 44.8134 29.8611 41.8403 32.1615 39.3229C31.1198 36.6319 31.2283 33.6806 32.487 30.4687C33.3116 30.2083 34.4944 30.3711 36.0352 30.957C37.576 31.543 38.8889 32.1832 39.974 32.8776L41.6667 33.9193C44.184 33.1814 46.9618 32.8125 50 32.8125C53.0382 32.8125 55.816 33.1814 58.3333 33.9193C58.8108 33.6155 59.4293 33.2248 60.1888 32.7474C60.9483 32.27 62.1528 31.7057 63.8021 31.0547C65.4514 30.4036 66.6884 30.2083 67.513 30.4687C68.7717 33.6806 68.8802 36.6319 67.8385 39.3229C70.1389 41.8403 71.2891 44.8134 71.2891 48.2422C71.2891 50.7161 70.9852 52.8971 70.3776 54.7852C69.77 56.6732 68.9996 58.1923 68.0664 59.3424C67.1332 60.4926 65.9722 61.4583 64.5833 62.2396C63.1944 63.0208 61.8381 63.5851 60.5143 63.9323C59.1905 64.2795 57.704 64.5399 56.0547 64.7135C57.5738 66.059 58.3333 68.1207 58.3333 70.8984C58.3333 72.6345 58.3225 74.566 58.3008 76.6927C58.2791 78.8194 58.2682 79.9262 58.2682 80.013C58.2682 80.5339 58.4527 80.9679 58.8216 81.3151C59.1905 81.6623 59.7656 81.7708 60.5469 81.6406C67.2309 79.3837 72.6997 75.3581 76.9531 69.5638C81.2066 63.7695 83.3333 57.2483 83.3333 50ZM100 18.75V81.25C100 86.4149 98.1662 90.8312 94.4987 94.4987C90.8312 98.1662 86.4149 100 81.25 100H18.75C13.5851 100 9.16884 98.1662 5.5013 94.4987C1.83377 90.8312 0 86.4149 0 81.25V18.75C0 13.5851 1.83377 9.16884 5.5013 5.5013C9.16884 1.83377 13.5851 0 18.75 0H81.25C86.4149 0 90.8312 1.83377 94.4987 5.5013C98.1662 9.16884 100 13.5851 100 18.75Z" fill="white"/>
    </g>

    <g id="figma">
        <g clip-path="url(#clip0_4533_1212)">
            <path d="M76.5625 0H23.4375C10.4933 0 0 10.4933 0 23.4375V76.5625C0 89.5067 10.4933 100 23.4375 100H76.5625C89.5067 100 100 89.5067 100 76.5625V23.4375C100 10.4933 89.5067 0 76.5625 0Z" fill="#F4F2ED"/>
            <mask id="mask0_4533_1212" style="mask-type:luminance" maskUnits="userSpaceOnUse" x="23" y="10" width="53" height="80">
                <path d="M23.8281 10.9375H75.9219V89.0625H23.8281V10.9375Z" fill="white"/>
            </mask>
            <g mask="url(#mask0_4533_1212)">
                <path d="M36.8543 89.0625C44.0418 89.0625 49.875 83.2293 49.875 76.0418V63.0207H36.8543C29.6668 63.0207 23.8333 68.8543 23.8333 76.0418C23.8333 83.2293 29.6668 89.0625 36.8543 89.0625Z" fill="#0ACF83"/>
                <path d="M23.8333 50C23.8333 42.8125 29.6668 36.9793 36.8543 36.9793H49.875V63.0207H36.8543C29.6668 63.0207 23.8333 57.1875 23.8333 50Z" fill="#A259FF"/>
                <path d="M23.8333 23.9582C23.8333 16.7707 29.6668 10.9375 36.8543 10.9375H49.875V36.9793H36.8543C29.6668 36.9793 23.8333 31.1457 23.8333 23.9582Z" fill="#F24E1E"/>
                <path d="M49.875 10.9375H62.8957C70.0832 10.9375 75.9168 16.7707 75.9168 23.9582C75.9168 31.1457 70.0832 36.9793 62.8957 36.9793H49.875V10.9375Z" fill="#FF7262"/>
                <path d="M75.9168 50C75.9168 57.1875 70.0832 63.0207 62.8957 63.0207C55.7082 63.0207 49.875 57.1875 49.875 50C49.875 42.8125 55.7082 36.9793 62.8957 36.9793C70.0832 36.9793 75.9168 42.8125 75.9168 50Z" fill="#1ABCFE"/>
            </g>
        </g>
        <defs>
            <clipPath id="clip0_4533_1212">
                <rect width="100" height="100" fill="white"/>
            </clipPath>
        </defs>
    </g>

    <g id="git">
        <g clip-path="url(#clip0_4533_1197)">
            <path d="M76.5625 0H23.4375C10.4933 0 0 10.4933 0 23.4375V76.5625C0 89.5067 10.4933 100 23.4375 100H76.5625C89.5067 100 100 89.5067 100 76.5625V23.4375C100 10.4933 89.5067 0 76.5625 0Z" fill="#F03C2E"/>
            <mask id="mask0_4533_1197" style="mask-type:luminance" maskUnits="userSpaceOnUse" x="10" y="10" width="80" height="80">
                <path d="M10.9375 10.9375H89.0625V89.0625H10.9375V10.9375Z" fill="white"/>
            </mask>
            <g mask="url(#mask0_4533_1197)">
                <path d="M87.5875 46.5211L53.4786 12.4121C52.7753 11.7081 51.8789 11.2286 50.903 11.0343C49.927 10.8401 48.9153 10.9399 47.9961 11.3211C47.3858 11.5741 46.8314 11.9448 46.3645 12.4121L39.2844 19.4922L48.2688 28.4766C50.3586 27.7442 52.7512 28.2446 54.416 29.9098C55.2086 30.7038 55.7619 31.7048 56.0127 32.7982C56.2635 33.8917 56.2017 35.0337 55.8344 36.0938L64.4942 44.7535C66.5891 44.0309 69.0059 44.4969 70.6782 46.1743C71.5158 47.0116 72.0862 48.0786 72.3171 49.2403C72.5481 50.4019 72.4291 51.606 71.9754 52.7C71.3671 54.1668 70.2013 55.332 68.7342 55.9395C67.267 56.5469 65.6187 56.5469 64.1516 55.9395C63.425 55.6383 62.7649 55.1973 62.209 54.641C60.4512 52.8832 60.0168 50.2953 60.9055 48.1297L52.8293 40.0536V61.3063C53.4156 61.5963 53.9513 61.9788 54.416 62.4391C55.5388 63.5619 56.1696 65.0847 56.1696 66.6725C56.1696 68.2603 55.5388 69.7831 54.416 70.9059C53.2933 72.0287 51.7705 72.6594 50.1827 72.6594C48.5948 72.6594 47.072 72.0287 45.9493 70.9059C45.1112 70.069 44.5405 69.0022 44.3092 67.8406C44.0779 66.6791 44.1965 65.475 44.65 64.3809C44.9511 63.6544 45.3926 62.9946 45.9493 62.4391C46.5278 61.8629 47.17 61.4258 47.9098 61.1328V39.6825C47.1757 39.3823 46.5091 38.9383 45.9493 38.3766C45.1087 37.5369 44.5372 36.4659 44.3076 35.3001C44.078 34.1343 44.2008 32.9266 44.6602 31.8309L35.7981 22.9739L12.4094 46.3379C11.7053 47.0415 11.2257 47.9382 11.0314 48.9145C10.8371 49.8907 10.9367 50.9027 11.3176 51.8223C11.5708 52.4329 11.9418 52.9876 12.4094 53.4547L46.5207 87.561C46.9877 88.0282 47.5422 88.3989 48.1524 88.652C49.3853 89.1623 50.7703 89.1623 52.0032 88.652C52.6134 88.3989 53.1678 88.0282 53.6348 87.561L87.5875 53.6621C88.055 53.195 88.4259 52.6403 88.679 52.0298C88.932 51.4192 89.0624 50.7648 89.0625 50.1039C89.0626 49.443 88.9323 48.7884 88.6792 48.1778C88.4261 47.5672 88.0552 47.0125 87.5875 46.5453" fill="white"/>
            </g>
        </g>
        <defs>
            <clipPath id="clip0_4533_1197">
                <rect width="50" height="50" fill="white"/>
            </clipPath>
        </defs>
    </g>
</svg>



